
        <svg xmlns="http://www.w3.org/2000/svg" xmlns:xlink="http://www.w3.org/1999/xlink" version="1.1" width="3162.175444344336" height="592.1860922270456" viewBox="0 0 3162.175444344336 592.1860922270456">
			
			<g transform="scale(8.108772217216806) translate(10, 10)">
				<defs id="SvgjsDefs11229"/><g id="SvgjsG11230" featureKey="e7LhAk-0" transform="matrix(0.6331976481230213,0,0,0.6331976481230213,-5.382180009045681,-4.793306003054684)" fill="#000"><title xmlns="http://www.w3.org/2000/svg">Artboard 18</title><path xmlns="http://www.w3.org/2000/svg" d="M13.5,91.32H87.25a5,5,0,0,0,5-5V12.57a5,5,0,0,0-5-5H13.5a5,5,0,0,0-5,5V86.32A5,5,0,0,0,13.5,91.32ZM53,64.18H79.5a3,3,0,0,1,0,6H53a3,3,0,0,1,0-6ZM21.13,31.83a3,3,0,0,1,4.24-4.24L44.11,46.32a3,3,0,0,1,0,4.24L25.37,69.3a3,3,0,0,1-4.24-4.24L37.75,48.44Z"/></g><g id="SvgjsG11231" featureKey="nameFeature-0" transform="matrix(1.7026125106494006,0,0,1.7026125106494006,71.84222337909677,4.942104398548025)" fill="#000"><path d="M8.14 20.22 c-1 0 -1.98 -0.2 -2.9 -0.58 c-0.88 -0.38 -1.68 -0.92 -2.36 -1.6 c-0.7 -0.68 -1.24 -1.48 -1.6 -2.38 c-0.4 -0.92 -0.6 -1.88 -0.6 -2.9 c0 -4.1 3.36 -7.44 7.46 -7.44 c1.16 0 2.32 0.28 3.34 0.8 c1.02 0.5 1.94 1.28 2.62 2.2 l0.32 0.4 l-2.14 1.58 l-0.3 -0.4 c-0.9 -1.22 -2.3 -1.92 -3.84 -1.92 c-2.64 0 -4.8 2.14 -4.8 4.78 c0 2.66 2.16 4.82 4.8 4.82 c1.52 0 2.92 -0.7 3.84 -1.92 l0.3 -0.38 l2.12 1.56 l-0.32 0.4 c-0.7 0.94 -1.58 1.68 -2.62 2.2 c-1.02 0.52 -2.16 0.78 -3.32 0.78 z M23.28 20.2 c-4.1 0 -7.44 -3.32 -7.44 -7.42 c0 -4.12 3.34 -7.46 7.44 -7.46 c4.12 0 7.46 3.34 7.46 7.46 c0 4.1 -3.34 7.42 -7.46 7.42 z M23.28 7.98 c-2.62 0 -4.76 2.14 -4.76 4.8 c0 2.64 2.14 4.78 4.76 4.78 s4.76 -2.14 4.76 -4.78 c0 -2.66 -2.14 -4.8 -4.76 -4.8 z M37.5 20 l-4.78 0 l0 -14.24 l4.78 0 c4.02 0 7.3 3.2 7.3 7.12 s-3.28 7.12 -7.3 7.12 z M35.38 17.38 l2.12 0 c2.56 0 4.64 -2.02 4.64 -4.5 s-2.08 -4.5 -4.64 -4.5 l-2.12 0 l0 9 z M56.120000000000005 20 l-9.2 0 l0 -14.24 l9.38 0 l0 2.6 l-6.7 0 l0 2.1 l5.84 0 l0 2.66 l-5.84 0 l0 4.24 l6.52 0 l0 2.64 z M71.28 20.02 l-3.26 0 l-3.7 -5.18 l-3.72 5.18 l-3.26 0 l5.34 -7.46 l-4.86 -6.78 l3.28 0 l3.22 4.48 l3.22 -4.48 l3.26 0 l-4.86 6.78 z M83 20 l-2.68 0 l0 -11.6 l-3.5 0 l0 -2.64 l9.68 0 l0 2.64 l-3.5 0 l0 11.6 z M97.72000000000001 20 l-9.2 0 l0 -14.24 l9.38 0 l0 2.6 l-6.7 0 l0 2.1 l5.84 0 l0 2.66 l-5.84 0 l0 4.24 l6.52 0 l0 2.64 z M112.22000000000003 20 l-3.16 0 l-5.06 -6.96 l-1.14 0 l0 6.96 l-2.6 0 l0 -14.24 l5.1 0 c0.96 0 1.86 0.38 2.56 1.08 s1.08 1.6 1.08 2.56 c0 1.42 -0.84 2.7 -2.08 3.3 z M102.86000000000003 10.44 l2.5 0 c0.56 0 1.04 -0.46 1.04 -1.04 s-0.48 -1.04 -1.04 -1.04 l-2.5 0 l0 2.08 z M126.08000000000001 20 l-2.66 0 l0 -9.52 l-3.72 5.08 l-3.7 -5.08 l0 9.52 l-2.66 0 l0 -14.24 l2.5 0 l3.86 5.3 l3.86 -5.3 l2.52 0 l0 14.24 z M132.96 20 l-2.68 0 l0 -14.24 l2.68 0 l0 14.24 z M148.34 20 l-2.58 0 l-6.32 -9.34 l0 9.34 l-2.68 0 l0 -14.24 l2.6 0 l6.3 9.32 l0 -9.32 l2.68 0 l0 14.24 z M163.26000000000002 20 l-2.88 0 l-1.46 -3.84 l-4.72 0 l-1.48 3.84 l-2.86 0 l5.48 -14.24 l2.42 0 z M155.24 13.52 l2.64 0 l-1.32 -3.46 z M175.1 20 l-9.94 0 l0 -14.24 l2.68 0 l0 11.62 l7.26 0 l0 2.62 z"/></g>
			</g>
		</svg>
	